<?xml version="1.0" encoding="UTF-8"?>
<svg viewBox="0 0 962 1039" xmlns="http://www.w3.org/2000/svg">
 <g fill-rule="evenodd" stroke-width=".5">
  <path d="m0 519.5v-519.5h962v1039h-962v-519.5zm645.5-470h5.5l0.8 3.3q0.7 3.2 0.7 25.7t-4 36-12.3 33.5q-8.2 20-9.2 20t-3.2 5q-2.3 5-13.6 20.5-11.2 15.5-12.2 15.7-1 0.3-6.8 6.6-5.7 6.2-17.7 15.7t-19.7 14.3q-7.8 4.7-13.8 7.4-6 2.8-6 3.8t-6.8 3.5q-6.7 2.5-22 6.7-15.2 4.3-28.2 5.3t-14.2-2.7q-1.3-3.8-1.3-21.8t2.5-30.5 7.5-26 11.5-25.5 8-15 6.8-10.5q5.2-7.5 6.2-7.5t2.2-2.5q1.3-2.5 4-5 2.8-2.5 6.6-7 3.7-4.5 15.7-15t24-18.5 16.7-10.8q4.8-2.7 21.8-10.2t31-11 19.5-3.5zm205 312v1.5l-0.3 0.2q-0.2 0.3-3.7 3.3t-16 11.7l-12.5 8.8-0.2 0.5q-0.3 0.5-0.6 0.5h-0.2l-0.2 0.5q-0.3 0.5-0.6 0.5h-0.2l-2 4.8q-2 4.7-13.8 17.4-11.7 12.8-12.4 14.8-0.8 2-2.6 3.5-1.7 1.5-6.7 9.5t-12 22-11 26-4.5 14-1 7l-0.5 5h-0.5l-0.8 14q-0.7 14 0.8 31t5 32 7 25 4 11l0.5 1 0.3 3 0.2 3 2 6q2 6 3.2 6.5 1.3 0.5 7 10.3 5.8 9.7 13.6 19 7.7 9.2 21.4 22 13.8 12.7 24.8 19.7t21 12 11.5 5.5 2.5 1l1 0.5 1 0.5 1 0.5 0.2 0.3 0.3 0.2 0.3 0.2 0.2 0.3 0.2 0.3 0.3 0.2v4l-0.5 1-0.5 1-0.5 1-0.5 1h-0.5l-0.8 2.5q-0.7 2.5-1 2.7l-0.2 0.3-1.8 1.3q-1.7 1.2-4.4 7.4-2.8 6.3-10.6 21.6-7.7 15.2-18 33-10.2 17.7-17.2 29-7 11.2-8 11.2t-1.8 2.5q-0.7 2.5-1 3l-0.2 0.5v0.2q0 0.3 1 0.6 1 0.2 0.8 2.7-0.3 2.5-4.3 8.5t-15.5 21.5-21 26.5-16.8 17.5q-7.2 6.5-7.4 7.5-0.3 1-7 6-6.8 5-6.8 6t-1 1-1 1-7.8 5.5q-7.7 4.5-18.2 10t-21.2 8.7q-10.8 3.3-25.8 3.8t-25.5-1.5-27-8.5-25.5-10.5-25.5-8.5-20.5-6-31.5-2-44.5 2.5-30.8 7.7q-13.7 4.8-20.4 7.6-6.8 2.7-18.3 7.7t-25 9-30.5 4-29.5-3-27-10.5-15.5-9.2q-1-1.8-2-2-1-0.3-12-8.8t-17-15.2q-6-6.8-7-7-1-0.3-8.2-8.6-7.3-8.2-24.3-31.2l-17-23-0.5-1-0.5-1-0.3-0.2-0.2-0.3-0.2-0.3-0.3-0.2-0.3-1.5-0.2-1.5-0.5-0.2q-0.5-0.3-3.7-5-3.3-4.8-10.3-15.8t-10.7-18.5q-3.8-7.5-4.8-7.7-1-0.3-3.8-6-2.7-5.8-12.7-26.8t-13-26.5l-3-5.5-0.5-2-0.5-2-0.3-1-0.2-1-0.5-0.2q-0.5-0.3-5.7-15-5.3-14.8-9.3-27.3t-9.7-39.5l-5.8-27h-0.5l-0.5-3q-0.5-3-3-31t-1.8-59l0.8-31 0.2-0.5q0.3-0.5 0.6-0.5h0.2l0.2-0.5q0.3-0.5 0.6-0.5h0.2l0.2-3q0.3-3 0.8-6t5.5-24 10.5-36 11.8-27.5l6.2-12.5 0.2-1 0.3-1 0.5-1 0.5-1 0.3-0.2 0.2-0.3 0.2-0.3 0.3-0.2 0.3-0.2 0.2-0.3 5-7.5q5-7.5 12.2-17.8 7.3-10.2 14.6-19.2 7.2-9 8.2-9t3.5-3.2q2.5-3.3 3.5-3.6 1-0.2 4.5-4 3.5-3.7 16.5-13.7t23.5-16.5 21-11.5 25-10 28.5-7.5 37-2 41.5 4.5 36.5 9.5 28.5 9 12.5 3.8q2 0.2 2 1.2t19.5 4.8q19.5 3.7 38.5 3.2t33-4 26.2-8.2q12.3-4.8 36.6-12.6 24.2-7.7 44.2-11.2t42-3 41.5 5 27.7 7.8q8.3 3.2 16.6 7 8.2 3.7 22.4 12.4 14.3 8.8 28 20 13.8 11.3 15.8 12.6 2 1.2 2 2.2t1 1 3.5 3.5 3.5 3.5 7.2 8q6.3 8 6.3 9.5z" fill="#f8f9f9" stroke="#f8f9f9"/>
  <path d="m762.5 629.8l1.5 0.2 0.2 1 0.3 1 0.3 0.2 0.2 0.3 0.5 0.3 0.5 0.2 2 6q2 6 3.2 6.5 1.3 0.5 7 10.3 5.8 9.7 13.6 19 7.7 9.2 21.4 22 13.8 12.7 24.8 19.7t21 12 11.5 5.5 2.5 1l1 0.5 1 0.5 1 0.5 0.2 0.3 0.3 0.2 0.3 0.2 0.2 0.3 0.2 0.3 0.3 0.2v4l-0.5 1-0.5 1-0.5 1-0.5 1h-0.5l-1.5-0.2-1.5-0.3-0.2-0.3-0.3-0.2-0.3-0.2q-0.2-0.3-8.7-0.8t-382 1.2l-373.5 1.8-0.5-0.2q-0.5-0.3-5.7-15-5.3-14.8-9.3-27.3t-9.7-39.5l-5.8-27 0.2-1.5 0.3-1.5 0.3-1 0.2-1 342-1.8q342-1.7 343.5-1.4z" fill="#f9322a" stroke="#f9322a"/>
  <path d="m748 509l0.5 2 0.3 1 0.2 1-0.8 14q-0.7 14 0.8 31t5 32 7 25 4 11l0.5 1 0.3 3 0.2 3-0.5-0.2-0.5-0.3-0.2-0.3-0.3-0.2-0.3-1-0.2-1-1.5-0.2q-1.5-0.3-343.5 1.4l-342 1.8-0.2 1-0.3 1-0.3 1.5-0.2 1.5h-0.5l-0.5-3q-0.5-3-3-31t-1.8-59l0.8-31 0.5-0.2q0.5-0.3 0.5-0.6v-0.2l0.5-0.2q0.5-0.3 0.5-0.6v-0.2l202.5-2.2q202.5-2.3 337.3-2.6 134.7-0.2 135.2 1.8z" fill="#fd7d0a" stroke="#fd7d0a"/>
  <path d="m871.2 744.8l0.3 0.2 0.3 0.2 0.2 0.3 1.5 0.3 1.5 0.2-0.8 2.5q-0.7 2.5-1 2.7l-0.2 0.3-1.8 1.3q-1.7 1.2-4.4 7.4-2.8 6.3-10.6 21.6-7.7 15.2-18 33-10.2 17.7-17.2 29-7 11.2-8 11.2t-1.8 2.5q-0.7 2.5-1 3l-0.2 0.5-1 0.2q-1 0.3-319 1.8l-318 1.5-0.5 0.3-0.5 0.2-0.5-0.2q-0.5-0.3-3.7-5-3.3-4.8-10.3-15.8t-10.7-18.5q-3.8-7.5-4.8-7.7-1-0.3-3.8-6-2.7-5.8-12.7-26.8t-13-26.5l-3-5.5-0.5-2-0.5-2-0.3-1-0.2-1 373.5-1.8q373.5-1.7 382-1.2t8.7 0.8z" fill="#c02c89" stroke="#c02c89"/>
  <path d="m817 387.2l1-0.2-1.8 2q-1.7 2-2.4 5.2-0.8 3.3-13 16.6-12.3 13.2-13 15.2-0.8 2-2.6 3.5-1.7 1.5-6.7 9.5t-12 22-11 26-4.5 14-1 7l-0.5 5h-0.5l-0.2-1-0.3-1-0.5-2q-0.5-2-0.8-2.2-0.2-0.3-265.2 1.2t-336.5 3l-71.5 1.5-0.2 0.3-0.3 0.2-0.3 0.2-0.2 0.3-1 0.3-1 0.2 0.2-1 0.3-1 0.3-0.2 0.2-0.3 0.2-0.3 0.3-0.2 0.5-2.5q0.5-2.5 1-5.5t5.5-24 10.5-36 11.8-27.5l6.2-12.5v0.5l0.2 0.3 0.3 0.2 0.3 0.2 0.2 0.3 147-1.5q147-1.5 346.5-4t202.7-3.8q3.3-1.2 7-4.4 3.8-3.3 4.8-3.6z" fill="#fbee12" stroke="#fbee12"/>
  <path d="m809 861.2l1-0.2v0.2q0 0.3 1 0.6 1 0.2 0.8 2.7-0.3 2.5-4.3 8.5t-15.5 21.5-21 26.5-16.8 17.5q-7.2 6.5-7.4 7.5-0.3 1-7 6-6.8 5-6.8 6t-1 1-1 1-7.8 5.5q-7.7 4.5-18.2 10t-21.2 8.7q-10.8 3.3-25.8 3.8t-25.5-1.5-27-8.5-25.5-10.5-25.5-8.5-20.5-6-31.5-2-44.5 2.5-30.8 7.7q-13.7 4.8-20.4 7.6-6.8 2.7-18.3 7.7t-25 9-30.5 4-29.5-3-27-10.5-15.5-9.2q-1-1.8-2-2-1-0.3-12-8.8t-17-15.2q-6-6.8-7-7-1-0.3-8.2-8.6-7.3-8.2-24.3-31.2l-17-23-0.5-1-0.5-1-0.3-0.2-0.2-0.3-0.2-0.3-0.3-0.2-0.3-1.5-0.2-1.5 0.5-0.2 0.5-0.3 318-1.5q318-1.5 319-1.8z" fill="#18a3ec" stroke="#18a3ec"/>
  <path d="m850.5 361.5v1.5l-0.3 0.2q-0.2 0.3-3.7 3.3t-16 11.7l-12.5 8.8-0.5 0.2q-0.5 0.3-0.5 0.6v0.2l-0.5 0.2q-0.5 0.3-0.5 0.6v0.2l-1 0.2q-1 0.3-3.8 2.6-2.7 2.2-6 3.4-3.2 1.3-202.7 3.8t-346.5 4l-147 1.5-0.2-0.3-0.3-0.2-0.3-0.2-0.2-0.3v-0.5l0.2-1 0.3-1 0.5-1 0.5-1 0.3-0.2 0.2-0.3 0.2-0.3 0.3-0.2 0.3-0.2 0.2-0.3 5-7.5q5-7.5 12.2-17.8 7.3-10.2 14.6-19.2 7.2-9 8.2-9t3.5-3.2q2.5-3.3 3.5-3.6 1-0.2 4.5-4 3.5-3.7 16.5-13.7t23.5-16.5 21-11.5 25-10 28.5-7.5 37-2 41.5 4.5 36.5 9.5 28.5 9 12.5 3.8q2 0.2 2 1.2t19.5 4.8q19.5 3.7 38.5 3.2t33-4 26.2-8.2q12.3-4.8 36.6-12.6 24.2-7.7 44.2-11.2t42-3 41.5 5 27.7 7.8q8.3 3.2 16.6 7 8.2 3.7 22.4 12.4 14.3 8.8 28 20 13.8 11.3 15.8 12.6 2 1.2 2 2.2t1 1 3.5 3.5 3.5 3.5 7.2 8q6.3 8 6.3 9.5z" fill="#2ed821" stroke="#2ed821"/>
  <path d="m645.5 49.5h5.5l0.8 3.3q0.7 3.2 0.7 25.7t-4 36-12.3 33.5q-8.2 20-9.2 20t-3.2 5q-2.3 5-13.6 20.5-11.2 15.5-12.2 15.7-1 0.3-6.8 6.6-5.7 6.2-17.7 15.7t-19.7 14.3q-7.8 4.7-13.8 7.4-6 2.8-6 3.8t-6.8 3.5q-6.7 2.5-22 6.7-15.2 4.3-28.2 5.3t-14.2-2.7q-1.3-3.8-1.3-21.8t2.5-30.5 7.5-26 11.5-25.5 8-15 6.8-10.5q5.2-7.5 6.2-7.5t2.2-2.5q1.3-2.5 4-5 2.8-2.5 6.6-7 3.7-4.5 15.7-15t24-18.5 16.7-10.8q4.8-2.7 21.8-10.2t31-11 19.5-3.5z" fill="#35da27" stroke="#35da27"/>
 </g>
</svg>
